<svg width="32" height="32" viewBox="0 0 32 32" fill="none" xmlns="http://www.w3.org/2000/svg">
<rect width="32" height="32" rx="11" fill="black"/>
<path d="M11.3361 22L3.99994 10H5.95087L11.3361 18.8229L12.9009 16.2629L9.18203 10H11.2142L16.254 18.6857L18.0017 16.1029L14.547 10H20.8467L23.2823 14.3886L26.171 10H28L24.2032 15.8743L28 22H26.171L23.2244 17.4057L20.359 22H16.254L13.8154 18.1371L11.3361 22Z" fill="#F0F0F0"/>
<path d="M18 11L21 16L18 21" stroke="black" stroke-width="1.5"/>
<path d="M17.1772 11.1196H19.2429" stroke="#F0F0F0" stroke-width="0.5"/>
<path d="M19.3357 10.7864C19.2119 10.7808 19.088 10.7752 18.9825 10.7724C18.877 10.7695 18.7935 10.7695 18.7324 10.7674C18.6714 10.7653 18.6352 10.7612 18.5658 10.7576C18.4964 10.7541 18.3948 10.7513 18.3348 10.7485C18.2749 10.7456 18.2596 10.7429 18.2086 10.7414C18.1575 10.74 18.0713 10.74 17.9824 10.74" stroke="#F0F0F0" stroke-width="0.5"/>
<path d="M17.35 11.1997H19.2556" stroke="#F0F0F0" stroke-width="0.5"/>
<path d="M17.5514 21.4084H19.1636" stroke="#F0F0F0" stroke-width="0.5"/>
<path d="M17.5422 21.2786H19.2655" stroke="#F0F0F0" stroke-width="0.5"/>
<path d="M17.0418 20.9822H19.5342" stroke="#F0F0F0" stroke-width="0.5"/>
<path d="M17.0789 20.8618H19.1358" stroke="#F0F0F0" stroke-width="0.5"/>
</svg>
