<svg width="64" height="64" viewBox="0 0 64 64" fill="none" xmlns="http://www.w3.org/2000/svg">
<rect width="64" height="64" rx="22" fill="black"/>
<path d="M22.6723 44L7.99994 20H11.9018L22.6723 37.6457L25.8019 32.5257L18.3641 20H22.4285L32.5081 37.3714L36.0034 32.2057L29.094 20H41.6935L46.5647 28.7771L52.3421 20H56L48.4064 31.7486L56 44H52.3421L46.4488 34.8114L40.7181 44H32.5081L27.6308 36.2743L22.6723 44Z" fill="#F0F0F0"/>
<path d="M36 22L42 32L36 42" stroke="black" stroke-width="3"/>
<path d="M34.3236 22.1726H38.3027" stroke="#F0F0F0" stroke-width="0.5"/>
<path d="M35.4481 21.5239H38.3676" stroke="#F0F0F0" stroke-width="0.5"/>
<path d="M35.7076 21.7835C35.7362 21.7692 35.7647 21.7549 36.2041 21.7476C36.6434 21.7402 37.4926 21.7402 38.3676 21.7402" stroke="#F0F0F0" stroke-width="0.5"/>
<path d="M38.2162 21.3507C38.1948 21.3507 38.1734 21.3507 37.8377 21.3472C37.5019 21.3436 36.8525 21.3365 36.1834 21.3291" stroke="#F0F0F0" stroke-width="0.5"/>
<path d="M34.302 22.4106H38.4541" stroke="#F0F0F0" stroke-width="0.5"/>
<path d="M34.3885 22.5835H38.4325" stroke="#F0F0F0" stroke-width="0.5"/>
<path d="M34.5399 22.7566H38.4974" stroke="#F0F0F0" stroke-width="0.5"/>
<path d="M34.6177 41.3137H38.5279" stroke="#F0F0F0" stroke-width="0.5"/>
<path d="M34.7537 42.5547H38.8169" stroke="#F0F0F0" stroke-width="0.5"/>
<path d="M35.2127 42.1299H38.7319" stroke="#F0F0F0" stroke-width="0.5"/>
<path d="M35.0087 41.7559H38.5959" stroke="#F0F0F0" stroke-width="0.5"/>
<path d="M34.7707 41.2627H38.5109" stroke="#F0F0F0" stroke-width="0.5"/>
</svg>
